<svg xmlns="http://www.w3.org/2000/svg" xmlns:xlink="http://www.w3.org/1999/xlink" width="1215" zoomAndPan="magnify" viewBox="0 0 911.25 359.999987" height="480" preserveAspectRatio="xMidYMid meet" version="1.2"><defs><clipPath id="c34c33e797"><path d="M 775.164062 54.417969 L 893 54.417969 L 893 172.917969 L 775.164062 172.917969 Z M 775.164062 54.417969 "/></clipPath></defs><g id="e07dd05e55"><g clip-rule="nonzero" clip-path="url(#c34c33e797)"><path style=" stroke:none;fill-rule:nonzero;fill:#000000;fill-opacity:1;" d="M 817.605469 54.460938 C 811.53125 54.460938 806.347656 58.203125 804.210938 63.523438 C 811.273438 65.234375 816.757812 71.355469 817.363281 78.855469 C 817.421875 79.675781 816.96875 80.433594 816.210938 80.75 C 810.195312 83.339844 807.273438 90.386719 809.710938 96.476562 C 810.105469 97.445312 809.636719 98.554688 808.664062 98.945312 C 808.421875 99.039062 808.179688 99.082031 807.953125 99.082031 C 807.195312 99.082031 806.484375 98.628906 806.195312 97.886719 C 805.089844 95.144531 804.832031 92.25 805.273438 89.476562 C 799.636719 90.28125 795.136719 94.992188 794.832031 100.902344 C 794.773438 101.917969 793.9375 102.703125 792.9375 102.703125 C 792.910156 102.703125 792.878906 102.703125 792.832031 102.703125 C 791.785156 102.660156 790.984375 101.765625 791.042969 100.703125 C 791.46875 92.386719 798.242188 85.855469 806.410156 85.582031 C 807.800781 82.386719 810.210938 79.628906 813.410156 77.902344 C 812.300781 71.597656 806.726562 66.839844 800.226562 66.839844 C 797.152344 66.839844 794.195312 67.886719 791.863281 69.796875 C 787.847656 73.054688 786.832031 78.597656 788.03125 81.371094 C 783.152344 84.75 779.96875 90.386719 779.96875 96.765625 C 779.96875 98.703125 780.257812 100.582031 780.816406 102.355469 L 780.832031 102.386719 C 775.105469 106.554688 773.515625 114.902344 777.378906 120.339844 C 779.40625 123.21875 783.121094 125.917969 786.652344 126.476562 C 789.515625 126.917969 792.378906 126.445312 794.894531 125.128906 C 794.664062 124.570312 794.46875 123.976562 794.332031 123.371094 C 793.515625 119.992188 794.058594 116.507812 795.863281 113.539062 C 796.410156 112.644531 797.574219 112.355469 798.46875 112.902344 C 799.363281 113.445312 799.652344 114.628906 799.105469 115.523438 C 797.816406 117.613281 797.4375 120.082031 798.015625 122.460938 C 798.589844 124.855469 800.058594 126.871094 802.164062 128.160156 C 805.136719 129.960938 808.816406 129.945312 811.773438 128.128906 C 812.664062 127.570312 813.832031 127.855469 814.378906 128.75 C 814.9375 129.644531 814.652344 130.8125 813.757812 131.355469 C 811.664062 132.660156 809.300781 133.296875 806.9375 133.296875 C 804.605469 133.296875 802.273438 132.675781 800.179688 131.386719 C 798.863281 130.582031 797.726562 129.582031 796.785156 128.402344 C 794.316406 129.734375 791.574219 130.433594 788.773438 130.433594 C 787.863281 130.433594 786.96875 130.371094 786.074219 130.21875 C 784.105469 129.917969 782.242188 129.296875 780.542969 128.371094 C 780.164062 129.855469 779.96875 131.417969 779.96875 133.023438 C 779.96875 139.445312 783.195312 145.097656 788.121094 148.476562 C 788.589844 157.886719 796.015625 165.460938 805.347656 166.160156 C 807.910156 170.25 812.4375 172.960938 817.605469 172.960938 C 824.363281 172.960938 829.832031 168.386719 831.621094 162.191406 C 831.878906 161.296875 832.058594 160.21875 832.058594 159.234375 C 832.058594 159.234375 832.058594 68.507812 832.042969 68.339844 C 831.742188 60.613281 825.394531 54.460938 817.605469 54.460938 Z M 820.953125 154.386719 C 818.574219 156.917969 815.332031 158.28125 811.984375 158.28125 C 810.832031 158.28125 809.664062 158.113281 808.515625 157.78125 C 805.363281 156.855469 802.742188 154.765625 801.164062 151.871094 C 799.574219 148.992188 799.210938 145.660156 800.136719 142.492188 C 800.421875 141.476562 801.484375 140.917969 802.484375 141.203125 C 803.484375 141.492188 804.074219 142.554688 803.773438 143.554688 C 802.46875 148.070312 805.058594 152.824219 809.574219 154.128906 C 812.679688 155.039062 815.96875 154.128906 818.179688 151.78125 C 818.910156 151.023438 820.105469 150.976562 820.863281 151.703125 C 821.636719 152.417969 821.664062 153.613281 820.953125 154.386719 Z M 879.515625 130.433594 C 876.695312 130.433594 873.96875 129.734375 871.484375 128.402344 C 870.546875 129.582031 869.410156 130.582031 868.089844 131.386719 C 866 132.675781 863.667969 133.296875 861.332031 133.296875 C 858.96875 133.296875 856.621094 132.660156 854.515625 131.355469 C 853.621094 130.8125 853.347656 129.644531 853.894531 128.75 C 854.4375 127.855469 855.605469 127.570312 856.5 128.128906 C 859.46875 129.945312 863.152344 129.960938 866.121094 128.160156 C 868.210938 126.871094 869.679688 124.855469 870.257812 122.460938 C 870.832031 120.082031 870.453125 117.613281 869.179688 115.523438 C 868.636719 114.628906 868.910156 113.445312 869.800781 112.902344 C 870.710938 112.355469 871.863281 112.644531 872.410156 113.539062 C 874.226562 116.507812 874.773438 119.992188 873.953125 123.371094 C 873.800781 123.976562 873.605469 124.570312 873.378906 125.128906 C 875.910156 126.445312 878.757812 126.917969 881.621094 126.476562 C 885.167969 125.917969 888.273438 124.039062 890.378906 121.128906 C 894.257812 115.765625 893.757812 107.144531 887.453125 102.386719 L 887.46875 102.355469 L 887.453125 102.355469 C 888.015625 100.582031 888.316406 98.71875 888.316406 96.765625 C 888.316406 90.386719 885.121094 84.75 880.242188 81.371094 C 881.136719 78.597656 880.242188 72.703125 876.316406 69.675781 C 873.96875 67.886719 871.089844 66.839844 868.074219 66.839844 C 861.574219 66.839844 856.015625 71.613281 854.894531 77.902344 C 858.089844 79.628906 860.5 82.386719 861.894531 85.582031 C 870.058594 85.871094 876.832031 92.386719 877.257812 100.703125 C 877.316406 101.765625 876.515625 102.660156 875.46875 102.703125 C 875.4375 102.703125 875.394531 102.703125 875.363281 102.703125 C 874.363281 102.703125 873.53125 101.917969 873.46875 100.902344 C 873.167969 95.007812 868.679688 90.28125 863.03125 89.476562 C 863.484375 92.25 863.210938 95.144531 862.105469 97.886719 C 861.816406 98.628906 861.105469 99.082031 860.347656 99.082031 C 860.105469 99.082031 859.878906 99.039062 859.652344 98.945312 C 858.667969 98.554688 858.195312 97.445312 858.589844 96.476562 C 861.03125 90.386719 858.105469 83.339844 852.089844 80.75 C 851.332031 80.433594 850.878906 79.675781 850.9375 78.855469 C 851.542969 71.265625 857.167969 65.082031 864.363281 63.460938 C 862.210938 58.1875 857.03125 54.460938 850.984375 54.460938 C 843.832031 54.460938 838.152344 59.597656 836.695312 66.371094 C 836.53125 67.128906 836.4375 68.023438 836.4375 68.855469 L 836.4375 159.21875 C 836.4375 160.417969 836.695312 161.675781 837.058594 162.703125 C 839.074219 168.628906 844.363281 172.960938 850.921875 172.960938 C 856.105469 172.960938 860.636719 170.234375 863.195312 166.144531 C 872.410156 165.3125 879.695312 157.796875 880.167969 148.476562 C 885.089844 145.097656 888.316406 139.445312 888.316406 133.023438 C 888.316406 131.417969 888.105469 129.855469 887.726562 128.371094 C 886.03125 129.296875 884.179688 129.917969 882.210938 130.21875 C 881.300781 130.371094 880.410156 130.433594 879.515625 130.433594 Z M 867.121094 151.871094 C 865.53125 154.765625 862.921875 156.855469 859.757812 157.78125 C 858.605469 158.113281 857.4375 158.28125 856.289062 158.28125 C 852.9375 158.28125 849.695312 156.917969 847.332031 154.386719 C 846.605469 153.628906 846.652344 152.417969 847.410156 151.703125 C 848.167969 150.992188 849.378906 151.023438 850.089844 151.78125 C 852.300781 154.144531 855.605469 155.039062 858.695312 154.144531 C 860.894531 153.507812 862.695312 152.054688 863.789062 150.054688 C 864.894531 148.054688 865.136719 145.75 864.5 143.554688 C 864.210938 142.554688 864.789062 141.492188 865.789062 141.203125 C 866.800781 140.917969 867.847656 141.492188 868.152344 142.492188 C 869.058594 145.660156 868.695312 148.992188 867.121094 151.871094 Z M 867.121094 151.871094 "/></g><path style=" stroke:none;fill-rule:nonzero;fill:#000000;fill-opacity:1;" d="M 805.285156 314.644531 C 815.289062 312.144531 823.332031 307.84375 829.4375 301.75 C 835.53125 295.644531 838.574219 286.355469 838.574219 273.84375 L 798.242188 273.84375 L 798.242188 201.613281 L 870.953125 201.613281 L 870.953125 264.007812 C 870.316406 311.207031 850 336.386719 809.96875 339.507812 Z M 805.285156 314.644531 "/><path style=" stroke:none;fill-rule:nonzero;fill:#000000;fill-opacity:1;" d="M 91.726562 277.296875 C 67.726562 277.296875 49.875 270.964844 38.210938 258.265625 C 26.527344 245.539062 20.269531 225.328125 19.421875 197.601562 L 66.875 190.449219 C 67.117188 206.371094 69.027344 217.8125 72.632812 224.75 C 76.269531 231.660156 81.695312 235.117188 88.9375 235.117188 C 98.226562 235.117188 102.875 229.023438 102.875 216.8125 C 102.875 207.085938 100.648438 198.691406 96.210938 191.660156 C 91.753906 184.628906 84.785156 177.101562 75.300781 169.054688 L 53.542969 150.085938 C 42.785156 140.992188 34.46875 131.34375 28.574219 121.113281 C 22.664062 110.855469 19.722656 98.691406 19.722656 84.628906 C 19.722656 63.539062 25.980469 47.296875 38.511719 35.902344 C 51.027344 24.507812 68.238281 18.8125 90.148438 18.8125 C 113.9375 18.8125 130.117188 25.765625 138.695312 39.660156 C 147.300781 53.523438 151.921875 70.371094 152.574219 90.207031 L 104.753906 96.085938 C 104.347656 83.085938 103.148438 73.722656 101.179688 68.023438 C 99.238281 62.328125 94.953125 59.476562 88.332031 59.476562 C 83.558594 59.476562 79.875 61.507812 77.300781 65.539062 C 74.710938 69.585938 73.421875 74.085938 73.421875 79.054688 C 73.421875 87.539062 75.316406 94.675781 79.117188 100.449219 C 82.953125 106.234375 89.117188 112.855469 97.605469 120.328125 L 118.390625 138.628906 C 130.832031 149.175781 140.453125 160.359375 147.242188 172.144531 C 154.058594 183.949219 157.484375 197.902344 157.484375 214.023438 C 157.484375 225.828125 154.726562 236.539062 149.242188 246.144531 C 143.785156 255.765625 136.089844 263.359375 126.148438 268.933594 C 116.238281 274.507812 104.769531 277.296875 91.726562 277.296875 Z M 91.726562 277.296875 "/><path style=" stroke:none;fill-rule:nonzero;fill:#000000;fill-opacity:1;" d="M 183.871094 63.539062 L 145.992188 63.539062 L 145.992188 22.265625 L 277.265625 22.265625 L 277.265625 63.539062 L 239.75 63.539062 L 239.75 273.601562 L 183.871094 273.601562 Z M 183.871094 63.539062 "/><path style=" stroke:none;fill-rule:nonzero;fill:#000000;fill-opacity:1;" d="M 339.039062 277.296875 C 314.1875 277.296875 296.492188 269.765625 285.945312 254.691406 C 275.402344 239.585938 270.128906 218.175781 270.128906 190.449219 L 270.128906 106.023438 C 270.128906 77.707031 275.855469 56.085938 287.339844 41.175781 C 298.808594 26.265625 318.203125 18.8125 345.523438 18.8125 C 371.78125 18.8125 390.582031 25.234375 401.949219 38.085938 C 413.339844 50.902344 419.039062 68.992188 419.039062 92.386719 L 419.039062 108.507812 L 364.734375 108.507812 L 364.734375 88.023438 C 364.734375 78.085938 363.597656 70.597656 361.339844 65.539062 C 359.066406 60.492188 354.007812 57.964844 346.128906 57.964844 C 338.082031 57.964844 332.871094 60.75 330.492188 66.328125 C 328.097656 71.902344 326.917969 79.660156 326.917969 89.601562 L 326.917969 205.964844 C 326.917969 215.902344 328.402344 223.722656 331.402344 229.417969 C 334.386719 235.085938 339.824219 237.902344 347.703125 237.902344 C 362.160156 237.902344 369.402344 227.054688 369.402344 205.359375 L 369.402344 175.84375 L 346.796875 175.84375 L 346.796875 143.296875 L 419.402344 143.296875 L 419.402344 273.601562 L 382.734375 273.601562 L 379.644531 252.8125 C 371.796875 269.144531 358.265625 277.296875 339.039062 277.296875 Z M 339.039062 277.296875 "/><path style=" stroke:none;fill-rule:nonzero;fill:#000000;fill-opacity:1;" d="M 434.285156 22.265625 L 493.859375 22.265625 L 521.4375 168.386719 L 551.253906 22.265625 L 608.648438 22.265625 L 613.011719 273.601562 L 573.558594 273.601562 L 568.953125 106.328125 L 539.738281 273.601562 L 504.707031 273.601562 L 473.679688 105.113281 L 469.921875 273.601562 L 429.921875 273.601562 Z M 434.285156 22.265625 "/><path style=" stroke:none;fill-rule:nonzero;fill:#000000;fill-opacity:1;" d="M 661.382812 22.265625 L 724.65625 22.265625 L 771.503906 273.601562 L 720.355469 273.601562 L 711.929688 220.507812 L 675.019531 220.507812 L 666.351562 273.601562 L 613.929688 273.601562 Z M 706.65625 187.359375 L 693.324219 89.296875 L 679.988281 187.359375 Z M 706.65625 187.359375 "/></g></svg>